<svg width="62" height="53" viewBox="0 0 62 53" fill="none" xmlns="http://www.w3.org/2000/svg">
    <path d="M62 48L31 14L0 48L6.9973e-07 30.1053L62 30.1053L62 48Z" fill="#094067"/>
    <path fill-rule="evenodd" clip-rule="evenodd" d="M32 48.0318C43.6673 48.0318 53.1256 38.3917 53.1256 26.5C53.1256 14.6083 43.6673 4.96817 32 4.96817C20.3327 4.96817 10.8744 14.6083 10.8744 26.5C10.8744 38.3917 20.3327 48.0318 32 48.0318ZM32 53C46.3594 53 58 41.1355 58 26.5C58 11.8645 46.3594 0 32 0C17.6406 0 6 11.8645 6 26.5C6 41.1355 17.6406 53 32 53Z" fill="#094067"/>
</svg>
