<svg width="350" height="57" viewBox="0 0 350 57" fill="none" xmlns="http://www.w3.org/2000/svg">
<path d="M62 48L31 14L0 48L6.9973e-07 30.1053L62 30.1053L62 48Z" fill="#094067"/>
<path fill-rule="evenodd" clip-rule="evenodd" d="M32 48.0318C43.6673 48.0318 53.1256 38.3917 53.1256 26.5C53.1256 14.6083 43.6673 4.96817 32 4.96817C20.3327 4.96817 10.8744 14.6083 10.8744 26.5C10.8744 38.3917 20.3327 48.0318 32 48.0318ZM32 53C46.3594 53 58 41.1355 58 26.5C58 11.8645 46.3594 0 32 0C17.6406 0 6 11.8645 6 26.5C6 41.1355 17.6406 53 32 53Z" fill="#094067"/>
<path d="M121.265 31.5C120.117 32.9265 118.493 34.0368 116.395 34.8309C114.297 35.6103 111.972 36 109.419 36C106.74 36 104.386 35.3971 102.359 34.1912C100.346 32.9706 98.786 31.2059 97.6801 28.8971C96.5884 26.5882 96.0284 23.875 96 20.7574V18.5735C96 15.3676 96.5175 12.5956 97.5525 10.2574C98.6017 7.90441 100.105 6.11029 102.061 4.875C104.032 3.625 106.336 3 108.973 3C112.645 3 115.516 3.91176 117.586 5.73529C119.656 7.54412 120.882 10.1838 121.265 13.6544H115.055C114.772 11.8162 114.141 10.4706 113.162 9.61765C112.198 8.76471 110.866 8.33823 109.164 8.33823C106.995 8.33823 105.343 9.18382 104.209 10.875C103.075 12.5662 102.501 15.0809 102.486 18.4191V20.4706C102.486 23.8382 103.103 26.3823 104.337 28.1029C105.57 29.8235 107.378 30.6838 109.76 30.6838C112.156 30.6838 113.864 30.1544 114.885 29.0956V23.5588H109.079V18.6838H121.265V31.5Z" fill="#094067"/>
<path d="M137.917 23.8015H132.835V35.5588H126.454V3.44118H137.96C141.618 3.44118 144.439 4.28676 146.424 5.97794C148.409 7.66912 149.402 10.0588 149.402 13.1471C149.402 15.3382 148.941 17.1691 148.019 18.6397C147.112 20.0956 145.729 21.2574 143.872 22.125L150.571 35.25V35.5588H143.723L137.917 23.8015ZM132.835 18.4412H137.981C139.583 18.4412 140.824 18.0221 141.703 17.1838C142.582 16.3309 143.021 15.1618 143.021 13.6765C143.021 12.1618 142.603 10.9706 141.767 10.1029C140.944 9.23529 139.675 8.80147 137.96 8.80147H132.835V18.4412Z" fill="#094067"/>
<path d="M171.753 28.9412H160.567L158.44 35.5588H151.656L163.183 3.44118H169.095L180.685 35.5588H173.901L171.753 28.9412ZM162.289 23.5809H170.031L166.139 11.5588L162.289 23.5809Z" fill="#094067"/>
<path d="M208.758 35.5588H202.378L189.958 14.4265V35.5588H183.578V3.44118H189.958L202.399 24.6176V3.44118H208.758V35.5588Z" fill="#094067"/>
<path d="M214.33 35.5588V3.44118H223.857C226.58 3.44118 229.011 4.08088 231.152 5.36029C233.307 6.625 234.987 8.43382 236.192 10.7868C237.397 13.125 238 15.7868 238 18.7721V20.25C238 23.2353 237.405 25.8897 236.214 28.2132C235.037 30.5368 233.371 32.3382 231.216 33.6176C229.061 34.8971 226.629 35.5441 223.921 35.5588H214.33ZM220.71 8.80147V30.2426H223.794C226.289 30.2426 228.196 29.3971 229.514 27.7059C230.833 26.0147 231.506 23.5956 231.535 20.4485V18.75C231.535 15.4853 230.883 13.0147 229.578 11.3382C228.274 9.64706 226.367 8.80147 223.857 8.80147H220.71Z" fill="#094067"/>
<path d="M273.357 24.8603C273.134 28.3162 271.993 31.0368 269.933 33.0221C267.887 35.0074 265.184 36 261.826 36C258.153 36 255.26 34.6176 253.148 31.8529C251.049 29.0735 250 25.2647 250 20.4265V18.4632C250 15.375 250.485 12.6544 251.456 10.3015C252.427 7.94853 253.811 6.14706 255.608 4.89706C257.418 3.63235 259.517 3 261.905 3C265.211 3 267.874 3.99265 269.894 5.97794C271.914 7.96324 273.081 10.75 273.396 14.3382H267.493C267.349 12.2647 266.831 10.7647 265.939 9.83823C265.06 8.89706 263.715 8.42647 261.905 8.42647C259.937 8.42647 258.461 9.22059 257.477 10.8088C256.507 12.3824 256.008 14.8309 255.982 18.1544V20.5809C255.982 24.0515 256.448 26.5882 257.379 28.1912C258.323 29.7941 259.806 30.5956 261.826 30.5956C263.649 30.5956 265.007 30.1324 265.899 29.2059C266.804 28.2647 267.323 26.8162 267.454 24.8603H273.357Z" fill="#094067"/>
<path d="M300.767 20.2279C300.767 23.3897 300.269 26.1618 299.272 28.5441C298.275 30.9265 296.845 32.7647 294.982 34.0588C293.133 35.3529 291.007 36 288.607 36C286.232 36 284.114 35.3603 282.251 34.0809C280.388 32.8015 278.945 30.9779 277.922 28.6103C276.899 26.2279 276.381 23.4926 276.368 20.4044V18.8162C276.368 15.6544 276.873 12.875 277.883 10.4779C278.906 8.06618 280.342 6.22059 282.192 4.94118C284.055 3.64706 286.18 3 288.567 3C290.955 3 293.074 3.64706 294.923 4.94118C296.786 6.22059 298.222 8.06618 299.233 10.4779C300.256 12.875 300.767 15.6471 300.767 18.7941V20.2279ZM294.786 18.7721C294.786 15.4044 294.248 12.8456 293.172 11.0956C292.096 9.34559 290.561 8.47059 288.567 8.47059C286.587 8.47059 285.058 9.33823 283.983 11.0735C282.907 12.7941 282.363 15.3235 282.349 18.6618V20.2279C282.349 23.5074 282.887 26.0515 283.963 27.8603C285.039 29.6691 286.587 30.5735 288.607 30.5735C290.588 30.5735 292.109 29.7059 293.172 27.9706C294.235 26.2206 294.772 23.6765 294.786 20.3382V18.7721Z" fill="#094067"/>
<path d="M315.663 23.8015H310.96V35.5588H305.057V3.44118H315.702C319.087 3.44118 321.697 4.28676 323.534 5.97794C325.371 7.66912 326.289 10.0588 326.289 13.1471C326.289 15.3382 325.863 17.1691 325.01 18.6397C324.17 20.0956 322.891 21.2574 321.173 22.125L327.371 35.25V35.5588H321.035L315.663 23.8015ZM310.96 18.4412H315.722C317.205 18.4412 318.352 18.0221 319.166 17.1838C319.979 16.3309 320.386 15.1618 320.386 13.6765C320.386 12.1618 319.999 10.9706 319.225 10.1029C318.464 9.23529 317.29 8.80147 315.702 8.80147H310.96V18.4412Z" fill="#094067"/>
<path d="M348.032 21.6397H336.698V30.2426H350V35.5588H330.795V3.44118H349.961V8.80147H336.698V16.4559H348.032V21.6397Z" fill="#094067"/>
<path d="M311.329 50.6826H307.474L306.667 53H304.869L308.629 43.0469H310.181L313.947 53H312.143L311.329 50.6826ZM307.959 49.2881H310.844L309.401 45.1592L307.959 49.2881ZM316.812 51.6191H321.33V53H315.082V43.0469H316.812V51.6191ZM324.386 49.3018V53H322.656V43.0469H326.464C327.576 43.0469 328.458 43.3363 329.109 43.915C329.766 44.4938 330.094 45.2594 330.094 46.2119C330.094 47.1872 329.772 47.946 329.13 48.4883C328.492 49.0306 327.596 49.3018 326.443 49.3018H324.386ZM324.386 47.9141H326.464C327.079 47.9141 327.549 47.7705 327.872 47.4834C328.196 47.1917 328.357 46.7725 328.357 46.2256C328.357 45.6878 328.193 45.2594 327.865 44.9404C327.537 44.6169 327.086 44.4505 326.512 44.4414H324.386V47.9141ZM339.514 53H337.791V48.5771H333.341V53H331.611V43.0469H333.341V47.1895H337.791V43.0469H339.514V53ZM347.259 50.6826H343.403L342.597 53H340.799L344.559 43.0469H346.11L349.877 53H348.072L347.259 50.6826ZM343.889 49.2881H346.773L345.331 45.1592L343.889 49.2881Z" fill="#094067"/>
</svg>
