<svg width="354" height="57" viewBox="0 0 354 57" fill="none" xmlns="http://www.w3.org/2000/svg">
<path d="M63.3486 48L32.0771 14L0.805664 48L0.805665 30.1053L63.3486 30.1053L63.3486 48Z" fill="white"/>
<path fill-rule="evenodd" clip-rule="evenodd" d="M33.0858 48.0318C44.8553 48.0318 54.3964 38.3917 54.3964 26.5C54.3964 14.6083 44.8553 4.96817 33.0858 4.96817C21.3163 4.96817 11.7753 14.6083 11.7753 26.5C11.7753 38.3917 21.3163 48.0318 33.0858 48.0318ZM33.0858 53C47.571 53 59.3135 41.1355 59.3135 26.5C59.3135 11.8645 47.571 0 33.0858 0C18.6007 0 6.85815 11.8645 6.85815 26.5C6.85815 41.1355 18.6007 53 33.0858 53Z" fill="white"/>
<path d="M123.133 31.5C121.974 32.9265 120.337 34.0368 118.22 34.8309C116.103 35.6103 113.758 36 111.183 36C108.48 36 106.106 35.3971 104.061 34.1912C102.03 32.9706 100.457 31.2059 99.341 28.8971C98.2398 26.5882 97.6748 23.875 97.6462 20.7574V18.5735C97.6462 15.3676 98.1683 12.5956 99.2123 10.2574C100.271 7.90441 101.787 6.11029 103.76 4.875C105.748 3.625 108.073 3 110.733 3C114.437 3 117.333 3.91176 119.421 5.73529C121.509 7.54412 122.747 10.1838 123.133 13.6544H116.868C116.582 11.8162 115.946 10.4706 114.959 9.61765C113.986 8.76471 112.642 8.33823 110.926 8.33823C108.738 8.33823 107.071 9.18382 105.927 10.875C104.783 12.5662 104.204 15.0809 104.189 18.4191V20.4706C104.189 23.8382 104.812 26.3823 106.056 28.1029C107.3 29.8235 109.124 30.6838 111.527 30.6838C113.944 30.6838 115.667 30.1544 116.697 29.0956V23.5588H110.84V18.6838H123.133V31.5Z" fill="white"/>
<path d="M139.931 23.8015H134.803V35.5588H128.367V3.44118H139.974C143.663 3.44118 146.51 4.28676 148.512 5.97794C150.514 7.66912 151.515 10.0588 151.515 13.1471C151.515 15.3382 151.051 17.1691 150.121 18.6397C149.206 20.0956 147.811 21.2574 145.938 22.125L152.695 35.25V35.5588H145.787L139.931 23.8015ZM134.803 18.4412H139.995C141.611 18.4412 142.863 18.0221 143.749 17.1838C144.636 16.3309 145.079 15.1618 145.079 13.6765C145.079 12.1618 144.657 10.9706 143.814 10.1029C142.984 9.23529 141.704 8.80147 139.974 8.80147H134.803V18.4412Z" fill="white"/>
<path d="M174.063 28.9412H162.778L160.633 35.5588H153.789L165.417 3.44118H171.381L183.073 35.5588H176.23L174.063 28.9412ZM164.516 23.5809H172.325L168.399 11.5588L164.516 23.5809Z" fill="white"/>
<path d="M211.391 35.5588H204.955L192.427 14.4265V35.5588H185.991V3.44118H192.427L204.977 24.6176V3.44118H211.391V35.5588Z" fill="white"/>
<path d="M217.012 35.5588V3.44118H226.623C229.369 3.44118 231.822 4.08088 233.982 5.36029C236.156 6.625 237.85 8.43382 239.066 10.7868C240.282 13.125 240.89 15.7868 240.89 18.7721V20.25C240.89 23.2353 240.289 25.8897 239.088 28.2132C237.901 30.5368 236.22 32.3382 234.046 33.6176C231.872 34.8971 229.419 35.5441 226.688 35.5588H217.012ZM223.448 8.80147V30.2426H226.559C229.076 30.2426 231 29.3971 232.33 27.7059C233.66 26.0147 234.339 23.5956 234.368 20.4485V18.75C234.368 15.4853 233.71 13.0147 232.394 11.3382C231.078 9.64706 229.155 8.80147 226.623 8.80147H223.448Z" fill="white"/>
<path d="M276.556 24.8603C276.331 28.3162 275.18 31.0368 273.102 33.0221C271.038 35.0074 268.312 36 264.924 36C261.219 36 258.301 34.6176 256.171 31.8529C254.053 29.0735 252.995 25.2647 252.995 20.4265V18.4632C252.995 15.375 253.484 12.6544 254.463 10.3015C255.443 7.94853 256.839 6.14706 258.652 4.89706C260.478 3.63235 262.595 3 265.004 3C268.338 3 271.025 3.99265 273.063 5.97794C275.1 7.96324 276.278 10.75 276.596 14.3382H270.641C270.495 12.2647 269.973 10.7647 269.073 9.83823C268.186 8.89706 266.83 8.42647 265.004 8.42647C263.019 8.42647 261.53 9.22059 260.537 10.8088C259.558 12.3824 259.055 14.8309 259.029 18.1544V20.5809C259.029 24.0515 259.499 26.5882 260.438 28.1912C261.391 29.7941 262.886 30.5956 264.924 30.5956C266.764 30.5956 268.133 30.1324 269.033 29.2059C269.946 28.2647 270.469 26.8162 270.601 24.8603H276.556Z" fill="white"/>
<path d="M304.207 20.2279C304.207 23.3897 303.704 26.1618 302.698 28.5441C301.692 30.9265 300.25 32.7647 298.371 34.0588C296.505 35.3529 294.361 36 291.94 36C289.544 36 287.407 35.3603 285.528 34.0809C283.649 32.8015 282.193 30.9779 281.161 28.6103C280.129 26.2279 279.606 23.4926 279.593 20.4044V18.8162C279.593 15.6544 280.103 12.875 281.122 10.4779C282.154 8.06618 283.603 6.22059 285.469 4.94118C287.348 3.64706 289.491 3 291.9 3C294.308 3 296.445 3.64706 298.311 4.94118C300.19 6.22059 301.639 8.06618 302.658 10.4779C303.69 12.875 304.207 15.6471 304.207 18.7941V20.2279ZM298.172 18.7721C298.172 15.4044 297.63 12.8456 296.545 11.0956C295.46 9.34559 293.911 8.47059 291.9 8.47059C289.902 8.47059 288.36 9.33823 287.275 11.0735C286.19 12.7941 285.641 15.3235 285.627 18.6618V20.2279C285.627 23.5074 286.17 26.0515 287.255 27.8603C288.34 29.6691 289.902 30.5735 291.94 30.5735C293.938 30.5735 295.473 29.7059 296.545 27.9706C297.617 26.2206 298.159 23.6765 298.172 20.3382V18.7721Z" fill="white"/>
<path d="M319.233 23.8015H314.489V35.5588H308.534V3.44118H319.272C322.687 3.44118 325.32 4.28676 327.173 5.97794C329.025 7.66912 329.952 10.0588 329.952 13.1471C329.952 15.3382 329.521 17.1691 328.661 18.6397C327.814 20.0956 326.524 21.2574 324.791 22.125L331.043 35.25V35.5588H324.652L319.233 23.8015ZM314.489 18.4412H319.292C320.788 18.4412 321.946 18.0221 322.766 17.1838C323.586 16.3309 323.997 15.1618 323.997 13.6765C323.997 12.1618 323.606 10.9706 322.826 10.1029C322.058 9.23529 320.874 8.80147 319.272 8.80147H314.489V18.4412Z" fill="white"/>
<path d="M351.885 21.6397H340.452V30.2426H353.87V35.5588H334.497V3.44118H353.831V8.80147H340.452V16.4559H351.885V21.6397Z" fill="white"/>
<path d="M315.2 50.6826H311.344L310.537 53H308.74L312.499 43.0469H314.051L317.818 53H316.013L315.2 50.6826ZM311.829 49.2881H314.714L313.272 45.1592L311.829 49.2881ZM320.682 51.6191H325.201V53H318.953V43.0469H320.682V51.6191ZM328.256 49.3018V53H326.527V43.0469H330.334C331.446 43.0469 332.328 43.3363 332.98 43.915C333.636 44.4938 333.964 45.2594 333.964 46.2119C333.964 47.1872 333.643 47.946 333 48.4883C332.362 49.0306 331.467 49.3018 330.314 49.3018H328.256ZM328.256 47.9141H330.334C330.95 47.9141 331.419 47.7705 331.743 47.4834C332.066 47.1917 332.228 46.7725 332.228 46.2256C332.228 45.6878 332.064 45.2594 331.736 44.9404C331.408 44.6169 330.956 44.4505 330.382 44.4414H328.256V47.9141ZM343.384 53H341.661V48.5771H337.211V53H335.482V43.0469H337.211V47.1895H341.661V43.0469H343.384V53ZM351.129 50.6826H347.274L346.467 53H344.669L348.429 43.0469H349.981L353.747 53H351.943L351.129 50.6826ZM347.759 49.2881H350.644L349.202 45.1592L347.759 49.2881Z" fill="white"/>
</svg>
